PathFileType	4	(X/Y/Z)	Patient4_TMGait_0pt2_03_right_10.trc.trc
DataRate	CameraRate	NumFrames	NumMarkers	Units	OrigDataRate	OrigDataStartFrame	OrigNumFrames
45.751633986928	45.751633986928	4	33	mm	45.751633986928	18	       141
Frame#	Time	Sacral			L.Shoulder			Chest			R.Shoulder			Neck			R.ASIS			L.ASIS			R.Thigh.Superior			R.Thigh.Lateral			R.Thigh.Inferior			R.Patella			L.Thigh.Superior			L.Thigh.Lateral			L.Thigh.Inferior			L.Patella			L.Shank.Superior			L.Shank.Lateral			L.Shank.Inferior			R.Shank.Superior			R.Shank.Lateral			R.Shank.Inferior			R.Heel			R.Midfoot.Superior			R.Midfoot.Lateral			R.Toe			L.Heel			L.Midfoot.Lateral			L.Midfoot.Superior			L.Toe			L.Elbow			L.Wrist			R.Elbow			R.Wrist			
		X1	Y1	Z1	X2	Y2	Z2	X3	Y3	Z3	X4	Y4	Z4	X5	Y5	Z5	X6	Y6	Z6	X7	Y7	Z7	X8	Y8	Z8	X9	Y9	Z9	X10	Y10	Z10	X11	Y11	Z11	X12	Y12	Z12	X13	Y13	Z13	X14	Y14	Z14	X15	Y15	Z15	X16	Y16	Z16	X17	Y17	Z17	X18	Y18	Z18	X19	Y19	Z19	X20	Y20	Z20	X21	Y21	Z21	X22	Y22	Z22	X23	Y23	Z23	X24	Y24	Z24	X25	Y25	Z25	X26	Y26	Z26	X27	Y27	Z27	X28	Y28	Z28	X29	Y29	Z29	X30	Y30	Z30	X31	Y31	Z31	X32	Y32	Z32	X33	Y33	Z33	

18	21.711571428571	746.718580137964	1018.807210804587	387.174840234653	999.595312773583	1441.310984122554	264.607004849308	1032.420877157282	1368.399317418573	448.579449675633	900.178683498136	1449.638522228479	583.184814302291	919.290373260219	1501.065024585999	407.387509696681	939.539989919320	956.787713473416	561.181180631278	989.791724419342	961.411018788592	291.076909503838	1005.090156314627	766.905435898524	549.287412031660	936.733327616385	658.002039394159	622.931847874017	1023.404781697564	603.326853730310	554.135335652422	1042.937555975813	519.449590073585	577.769572351452	1006.449273651065	739.910392405390	322.802826511078	912.678780479442	623.145109163955	242.527046488893	987.075027765443	547.368463874891	320.949500796807	979.991502220333	478.663438022249	329.240153721572	947.179390814206	407.769490223605	317.650047223840	853.537241502412	301.380569021886	258.288076269680	883.853406969897	186.743377261184	333.203740595875	1014.896959927913	432.462291658731	595.617043228133	945.979924394024	337.489878561203	673.256539940503	997.356575285657	235.581634939349	630.137684150681	872.869219946614	60.272037850328	630.524646025322	1047.370867475743	120.375215167764	652.337579647001	964.535589060133	54.126299522110	696.174342974209	1169.202651844670	73.215655873650	667.542590605676	741.838180670238	38.267606399659	367.706164145563	817.285081610534	34.983393962778	288.211976553746	901.106144465928	95.064060619651	317.963202117704	1029.734217911607	41.232111610217	290.349104586007	1174.008180268707	1174.595071576512	114.064379168059	1430.393542555283	1149.564699789931	157.260561453651	691.192616105568	1165.869374782682	628.802975711690	631.213331132618	910.558141437200	604.988142901904	
19	21.733428571429	747.474275822748	1018.454005284492	390.656208776449	1000.840871185496	1440.288273137313	269.078451056564	1032.393558964274	1367.999083539285	453.448260524775	899.451342168146	1449.892965416649	586.927718572527	919.582610311002	1500.553915193615	411.035332884030	938.547826796945	955.302760623039	566.159688901095	991.084076414491	960.843552944587	296.396892225148	1001.486440657323	763.567492238385	555.168296138241	929.782682099548	654.964517590197	626.430438184581	1017.128569194628	600.507938407745	558.536519125723	1035.337875143733	518.706615480524	580.581521918336	1005.553575030438	738.709575483584	326.908971996723	911.095458476821	623.426085221645	245.114175209964	984.108400198095	546.409098427459	323.487320149698	976.162584711004	477.970570396519	331.265260485283	943.398945501032	407.520324049889	319.154804305864	849.608376315950	301.623410006179	259.237693415486	879.612090185253	186.590037603552	333.644836629557	1011.390421079302	431.128813677332	598.118079193592	946.205204505275	332.261467373948	674.704502296263	1002.717791080664	232.734563214426	631.197016680576	885.212314717490	53.094046151403	629.677089294691	1058.330216405279	117.565015352039	652.282565432360	977.021757436628	48.681587334299	695.346734470587	1181.540196939710	73.285976682844	666.994311785998	737.420971017878	38.202662999087	367.692942214288	812.858288196086	34.929105990970	288.178080140420	896.654963408512	95.001901659329	318.010937115311	1025.304200675650	41.202748720197	290.355838250858	1179.335319953917	1177.649805352243	118.899738618176	1436.345668001846	1167.811671414898	163.316640547859	690.753689185073	1166.231138622846	631.500229498479	631.316885328564	910.700377263907	606.165196221264	
20	21.755285714286	748.435855344579	1017.696887535523	394.822932257152	1001.678777989808	1439.005253382122	273.983462409126	1032.493116985073	1367.365093748770	458.694350708953	899.034806901604	1449.718241037102	591.359647169383	919.824040269398	1499.760941792340	415.297638844192	938.094170255539	953.378532550087	571.395034824488	992.506196812915	960.172755549198	301.946288542004	998.933017400386	760.171267653234	560.887037092043	924.181611571488	651.589171340567	629.503028307880	1012.420376103233	597.715911898459	562.496478620281	1029.029311957275	517.420436697773	582.988536698412	1005.130655008211	737.406186008672	331.109395820002	909.972004508394	623.552846957921	247.987694702432	981.739379118156	545.335383808264	326.192913183887	973.031271819710	477.128081686617	333.450927568685	940.124055630871	407.108552157017	320.849258050912	846.006395350642	301.880999554039	260.330568484331	875.538327101824	186.361513885501	334.139373438207	1008.356359940943	429.323946584064	600.129359285842	945.785465495787	327.516853102939	675.332725465287	1006.201862257426	230.076630116481	631.426262952016	893.820556485813	48.201794241458	627.618171394739	1065.880732760850	114.740090424219	651.247625971774	985.347722230281	44.555778228966	693.517820232739	1189.597025438460	71.871662879026	665.781723647389	733.009516515721	38.154167141380	367.679985405187	808.438323497425	34.886531534892	288.155597149733	892.214002796494	94.941680507055	318.062402336658	1020.874104056098	41.153906892940	290.353126471889	1183.486664668204	1179.663821248525	124.198203926900	1440.246759575282	1183.735780757129	169.635098381776	691.393749775788	1165.459617908060	635.622916520380	633.014538647017	909.542556170850	609.364639990262	
21	21.777142857143	749.597261620993	1016.648819148177	399.649222038494	1002.152693489751	1437.583757194155	279.327054477944	1032.724726067475	1366.603062316134	464.329956271015	898.908099328763	1449.231016803474	596.470550332500	920.014854031809	1498.786862588552	420.181918179495	938.195408753431	951.188648392774	576.882713257703	994.058455620233	959.484805602080	307.719740640821	997.520014372439	756.890891572166	566.365504638474	920.135319866305	648.106257994661	632.238487383088	1009.360589775930	595.085168971683	566.020938762951	1024.203189176137	515.715619901682	585.052099640060	1005.117534550123	736.046333542093	335.424939654721	909.202333123219	623.580127804744	251.165029173489	979.860810323189	544.192394099137	329.071625794792	970.487985000155	476.185301380690	335.807966710750	937.259836715056	406.590968474793	322.743899680714	842.649745124283	302.190462059316	261.587217151737	871.598581351150	186.093801555902	334.695928496640	1005.960591987182	427.147765536523	601.745610942531	944.928715401270	323.285213867867	675.397967898173	1007.971580549562	227.518441440814	631.023413937880	898.773631710439	45.153881379198	624.798349645117	1070.178260519998	111.901509215866	649.484130852025	989.751483367994	41.572322609220	691.097303282291	1193.776566532621	69.230533094390	664.181125655927	728.606498696195	38.135831663413	367.669628121652	804.029563554057	34.867484076438	288.152135343165	887.791485885241	94.894296744684	318.119539581344	1016.446686323342	41.086102683549	290.341849153417	1186.484497195821	1180.691926174415	129.916574247946	1442.331305249130	1197.252951902143	176.166247686276	692.910307155597	1163.854659583079	641.161684485627	636.030856401378	907.425887671817	614.649671335068	
